<svg width="96" height="92" viewBox="0 0 96 92" fill="none" xmlns="http://www.w3.org/2000/svg">
<g filter="url(#filter0_d_104_31337)">
<path d="M50.4313 11C42.1259 15.7947 33.8206 20.5893 25.5153 25.384L15 31.5676L25.5153 37.7146C32.0153 41.4684 48.6776 51.8255 55.1793 55.5793L62.2972 51.4691L32.6332 33.6061V29.4942L43.3134 23.3273L50.4313 19.2187L75.3456 33.6044V25.384L50.4313 11Z" fill="#F0F1FF"/>
<path d="M55.7357 72.2532C64.0427 67.4585 72.3464 62.6638 80.6517 57.8675V45.5386C74.1516 41.7848 55.1079 30.4068 48.6078 26.6547L41.4883 30.7649L73.5338 49.6471V53.759L62.8553 59.9243L55.7357 64.0344L30.8214 49.6488V57.8675L55.7357 72.2532Z" fill="url(#paint0_linear_104_31337)"/>
</g>
<defs>
<filter id="filter0_d_104_31337" x="0" y="0" width="95.6517" height="91.2532" filterUnits="userSpaceOnUse" color-interpolation-filters="sRGB">
<feFlood flood-opacity="0" result="BackgroundImageFix"/>
<feColorMatrix in="SourceAlpha" type="matrix" values="0 0 0 0 0 0 0 0 0 0 0 0 0 0 0 0 0 0 127 0" result="hardAlpha"/>
<feOffset dy="4"/>
<feGaussianBlur stdDeviation="7.5"/>
<feComposite in2="hardAlpha" operator="out"/>
<feColorMatrix type="matrix" values="0 0 0 0 0 0 0 0 0 0 0 0 0 0 0 0 0 0 0.25 0"/>
<feBlend mode="normal" in2="BackgroundImageFix" result="effect1_dropShadow_104_31337"/>
<feBlend mode="normal" in="SourceGraphic" in2="effect1_dropShadow_104_31337" result="shape"/>
</filter>
<linearGradient id="paint0_linear_104_31337" x1="56" y1="27" x2="55.7365" y2="72.2532" gradientUnits="userSpaceOnUse">
<stop stop-color="#BBFFE7"/>
<stop offset="1" stop-color="#D9EFFF"/>
</linearGradient>
</defs>
</svg>
